<svg width="180" height="52" viewBox="0 0 180 52" fill="none" xmlns="http://www.w3.org/2000/svg">
<path d="M173.333 52H6.66667C3.00167 52 0 49.0734 0 45.5V6.50001C0 2.92663 3.00167 6.67572e-06 6.66667 6.67572e-06H173.333C176.998 6.67572e-06 180 2.92663 180 6.50001V45.5C180 49.0734 176.998 52 173.333 52Z" fill="black"/>
<path d="M173.333 1.04163C176.42 1.04163 178.932 3.49051 178.932 6.50001V45.5C178.932 48.5095 176.42 50.9584 173.333 50.9584H6.66667C3.58 50.9584 1.06833 48.5095 1.06833 45.5V6.50001C1.06833 3.49051 3.58 1.04163 6.66667 1.04163H173.333ZM173.333 6.67572e-06H6.66667C3.00167 6.67572e-06 0 2.92663 0 6.50001V45.5C0 49.0734 3.00167 52 6.66667 52H173.333C176.998 52 180 49.0734 180 45.5V6.50001C180 2.92663 176.998 6.67572e-06 173.333 6.67572e-06Z" fill="#A6A6A6"/>
<path d="M56.416 12.1067C57.008 12.1067 57.5253 12.2213 57.968 12.4507C58.416 12.6747 58.76 13 59 13.4267C59.2453 13.848 59.368 14.3413 59.368 14.9067C59.368 15.472 59.2453 15.9627 59 16.3787C58.76 16.7947 58.416 17.1147 57.968 17.3387C57.5253 17.5573 57.008 17.6667 56.416 17.6667H54.6V12.1067H56.416ZM56.416 16.9227C57.0667 16.9227 57.5653 16.7467 57.912 16.3947C58.2587 16.0427 58.432 15.5467 58.432 14.9067C58.432 14.2613 58.2587 13.7573 57.912 13.3947C57.5653 13.032 57.0667 12.8507 56.416 12.8507H55.512V16.9227H56.416ZM62.1839 17.7387C61.7679 17.7387 61.3919 17.6453 61.0559 17.4587C60.7199 17.2667 60.4559 17 60.2639 16.6587C60.0719 16.312 59.9759 15.912 59.9759 15.4587C59.9759 15.0107 60.0745 14.6133 60.2719 14.2667C60.4692 13.92 60.7385 13.6533 61.0799 13.4667C61.4212 13.28 61.8025 13.1867 62.2239 13.1867C62.6452 13.1867 63.0265 13.28 63.3679 13.4667C63.7092 13.6533 63.9785 13.92 64.1759 14.2667C64.3732 14.6133 64.4719 15.0107 64.4719 15.4587C64.4719 15.9067 64.3705 16.304 64.1679 16.6507C63.9652 16.9973 63.6879 17.2667 63.3359 17.4587C62.9892 17.6453 62.6052 17.7387 62.1839 17.7387ZM62.1839 16.9467C62.4185 16.9467 62.6372 16.8907 62.8399 16.7787C63.0479 16.6667 63.2159 16.4987 63.3439 16.2747C63.4719 16.0507 63.5359 15.7787 63.5359 15.4587C63.5359 15.1387 63.4745 14.8693 63.3519 14.6507C63.2292 14.4267 63.0665 14.2587 62.8639 14.1467C62.6612 14.0347 62.4425 13.9787 62.2079 13.9787C61.9732 13.9787 61.7545 14.0347 61.5519 14.1467C61.3545 14.2587 61.1972 14.4267 61.0799 14.6507C60.9625 14.8693 60.9039 15.1387 60.9039 15.4587C60.9039 15.9333 61.0239 16.3013 61.2639 16.5627C61.5092 16.8187 61.8159 16.9467 62.1839 16.9467ZM71.2934 13.2587L69.9254 17.6667H68.9654L68.0774 14.4107L67.1894 17.6667H66.2294L64.8534 13.2587H65.7814L66.7014 16.8027L67.6374 13.2587H68.5894L69.4854 16.7867L70.3974 13.2587H71.2934ZM74.199 13.1867C74.5457 13.1867 74.855 13.2587 75.127 13.4027C75.4043 13.5467 75.6203 13.76 75.775 14.0427C75.9297 14.3253 76.007 14.6667 76.007 15.0667V17.6667H75.103V15.2027C75.103 14.808 75.0043 14.5067 74.807 14.2987C74.6097 14.0853 74.3403 13.9787 73.999 13.9787C73.6577 13.9787 73.3857 14.0853 73.183 14.2987C72.9857 14.5067 72.887 14.808 72.887 15.2027V17.6667H71.975V13.2587H72.887V13.7627C73.0363 13.5813 73.2257 13.44 73.455 13.3387C73.6897 13.2373 73.9377 13.1867 74.199 13.1867ZM78.0823 11.7467V17.6667H77.1703V11.7467H78.0823ZM81.1917 17.7387C80.7757 17.7387 80.3997 17.6453 80.0637 17.4587C79.7277 17.2667 79.4637 17 79.2717 16.6587C79.0797 16.312 78.9837 15.912 78.9837 15.4587C78.9837 15.0107 79.0824 14.6133 79.2797 14.2667C79.477 13.92 79.7464 13.6533 80.0877 13.4667C80.429 13.28 80.8104 13.1867 81.2317 13.1867C81.653 13.1867 82.0344 13.28 82.3757 13.4667C82.717 13.6533 82.9864 13.92 83.1837 14.2667C83.381 14.6133 83.4797 15.0107 83.4797 15.4587C83.4797 15.9067 83.3784 16.304 83.1757 16.6507C82.973 16.9973 82.6957 17.2667 82.3437 17.4587C81.997 17.6453 81.613 17.7387 81.1917 17.7387ZM81.1917 16.9467C81.4264 16.9467 81.645 16.8907 81.8477 16.7787C82.0557 16.6667 82.2237 16.4987 82.3517 16.2747C82.4797 16.0507 82.5437 15.7787 82.5437 15.4587C82.5437 15.1387 82.4824 14.8693 82.3597 14.6507C82.237 14.4267 82.0744 14.2587 81.8717 14.1467C81.669 14.0347 81.4504 13.9787 81.2157 13.9787C80.981 13.9787 80.7624 14.0347 80.5597 14.1467C80.3624 14.2587 80.205 14.4267 80.0877 14.6507C79.9704 14.8693 79.9117 15.1387 79.9117 15.4587C79.9117 15.9333 80.0317 16.3013 80.2717 16.5627C80.517 16.8187 80.8237 16.9467 81.1917 16.9467ZM84.0772 15.4427C84.0772 15 84.1679 14.608 84.3492 14.2667C84.5359 13.9253 84.7866 13.6613 85.1012 13.4747C85.4212 13.2827 85.7732 13.1867 86.1572 13.1867C86.5039 13.1867 86.8052 13.256 87.0612 13.3947C87.3226 13.528 87.5306 13.696 87.6852 13.8987V13.2587H88.6052V17.6667H87.6852V17.0107C87.5306 17.2187 87.3199 17.392 87.0532 17.5307C86.7866 17.6693 86.4826 17.7387 86.1412 17.7387C85.7626 17.7387 85.4159 17.6427 85.1012 17.4507C84.7866 17.2533 84.5359 16.9813 84.3492 16.6347C84.1679 16.2827 84.0772 15.8853 84.0772 15.4427ZM87.6852 15.4587C87.6852 15.1547 87.6212 14.8907 87.4932 14.6667C87.3706 14.4427 87.2079 14.272 87.0052 14.1547C86.8026 14.0373 86.5839 13.9787 86.3492 13.9787C86.1146 13.9787 85.8959 14.0373 85.6932 14.1547C85.4906 14.2667 85.3252 14.4347 85.1972 14.6587C85.0746 14.8773 85.0132 15.1387 85.0132 15.4427C85.0132 15.7467 85.0746 16.0133 85.1972 16.2427C85.3252 16.472 85.4906 16.648 85.6932 16.7707C85.9012 16.888 86.1199 16.9467 86.3492 16.9467C86.5839 16.9467 86.8026 16.888 87.0052 16.7707C87.2079 16.6533 87.3706 16.4827 87.4932 16.2587C87.6212 16.0293 87.6852 15.7627 87.6852 15.4587ZM89.4991 15.4427C89.4991 15 89.5898 14.608 89.7711 14.2667C89.9578 13.9253 90.2085 13.6613 90.5231 13.4747C90.8431 13.2827 91.1978 13.1867 91.5871 13.1867C91.8751 13.1867 92.1578 13.2507 92.4351 13.3787C92.7178 13.5013 92.9418 13.6667 93.1071 13.8747V11.7467H94.0271V17.6667H93.1071V17.0027C92.9578 17.216 92.7498 17.392 92.4831 17.5307C92.2218 17.6693 91.9205 17.7387 91.5791 17.7387C91.1951 17.7387 90.8431 17.6427 90.5231 17.4507C90.2085 17.2533 89.9578 16.9813 89.7711 16.6347C89.5898 16.2827 89.4991 15.8853 89.4991 15.4427ZM93.1071 15.4587C93.1071 15.1547 93.0431 14.8907 92.9151 14.6667C92.7925 14.4427 92.6298 14.272 92.4271 14.1547C92.2245 14.0373 92.0058 13.9787 91.7711 13.9787C91.5365 13.9787 91.3178 14.0373 91.1151 14.1547C90.9125 14.2667 90.7471 14.4347 90.6191 14.6587C90.4965 14.8773 90.4351 15.1387 90.4351 15.4427C90.4351 15.7467 90.4965 16.0133 90.6191 16.2427C90.7471 16.472 90.9125 16.648 91.1151 16.7707C91.3231 16.888 91.5418 16.9467 91.7711 16.9467C92.0058 16.9467 92.2245 16.888 92.4271 16.7707C92.6298 16.6533 92.7925 16.4827 92.9151 16.2587C93.0431 16.0293 93.1071 15.7627 93.1071 15.4587ZM98.2151 13.8987C98.3485 13.6747 98.5245 13.5013 98.7431 13.3787C98.9671 13.2507 99.2311 13.1867 99.5351 13.1867V14.1307H99.3031C98.9458 14.1307 98.6738 14.2213 98.4871 14.4027C98.3058 14.584 98.2151 14.8987 98.2151 15.3467V17.6667H97.3031V13.2587H98.2151V13.8987ZM104.413 15.3547C104.413 15.52 104.403 15.6693 104.381 15.8027H101.013C101.04 16.1547 101.171 16.4373 101.405 16.6507C101.64 16.864 101.928 16.9707 102.269 16.9707C102.76 16.9707 103.107 16.7653 103.309 16.3547H104.293C104.16 16.76 103.917 17.0933 103.565 17.3547C103.219 17.6107 102.787 17.7387 102.269 17.7387C101.848 17.7387 101.469 17.6453 101.133 17.4587C100.803 17.2667 100.541 17 100.349 16.6587C100.163 16.312 100.069 15.912 100.069 15.4587C100.069 15.0053 100.16 14.608 100.341 14.2667C100.528 13.92 100.787 13.6533 101.117 13.4667C101.453 13.28 101.837 13.1867 102.269 13.1867C102.685 13.1867 103.056 13.2773 103.381 13.4587C103.707 13.64 103.96 13.896 104.141 14.2267C104.323 14.552 104.413 14.928 104.413 15.3547ZM103.461 15.0667C103.456 14.7307 103.336 14.4613 103.101 14.2587C102.867 14.056 102.576 13.9547 102.229 13.9547C101.915 13.9547 101.645 14.056 101.421 14.2587C101.197 14.456 101.064 14.7253 101.021 15.0667H103.461ZM106.223 11.7467V17.6667H105.311V11.7467H106.223ZM111.46 15.3547C111.46 15.52 111.45 15.6693 111.428 15.8027H108.06C108.087 16.1547 108.218 16.4373 108.452 16.6507C108.687 16.864 108.975 16.9707 109.316 16.9707C109.807 16.9707 110.154 16.7653 110.356 16.3547H111.34C111.207 16.76 110.964 17.0933 110.612 17.3547C110.266 17.6107 109.834 17.7387 109.316 17.7387C108.895 17.7387 108.516 17.6453 108.18 17.4587C107.85 17.2667 107.588 17 107.396 16.6587C107.21 16.312 107.116 15.912 107.116 15.4587C107.116 15.0053 107.207 14.608 107.388 14.2667C107.575 13.92 107.834 13.6533 108.164 13.4667C108.5 13.28 108.884 13.1867 109.316 13.1867C109.732 13.1867 110.103 13.2773 110.428 13.4587C110.754 13.64 111.007 13.896 111.188 14.2267C111.37 14.552 111.46 14.928 111.46 15.3547ZM110.508 15.0667C110.503 14.7307 110.383 14.4613 110.148 14.2587C109.914 14.056 109.623 13.9547 109.276 13.9547C108.962 13.9547 108.692 14.056 108.468 14.2587C108.244 14.456 108.111 14.7253 108.068 15.0667H110.508ZM112.054 15.4427C112.054 15 112.144 14.608 112.326 14.2667C112.512 13.9253 112.763 13.6613 113.078 13.4747C113.398 13.2827 113.75 13.1867 114.134 13.1867C114.48 13.1867 114.782 13.256 115.038 13.3947C115.299 13.528 115.507 13.696 115.662 13.8987V13.2587H116.582V17.6667H115.662V17.0107C115.507 17.2187 115.296 17.392 115.03 17.5307C114.763 17.6693 114.459 17.7387 114.118 17.7387C113.739 17.7387 113.392 17.6427 113.078 17.4507C112.763 17.2533 112.512 16.9813 112.326 16.6347C112.144 16.2827 112.054 15.8853 112.054 15.4427ZM115.662 15.4587C115.662 15.1547 115.598 14.8907 115.47 14.6667C115.347 14.4427 115.184 14.272 114.982 14.1547C114.779 14.0373 114.56 13.9787 114.326 13.9787C114.091 13.9787 113.872 14.0373 113.67 14.1547C113.467 14.2667 113.302 14.4347 113.174 14.6587C113.051 14.8773 112.99 15.1387 112.99 15.4427C112.99 15.7467 113.051 16.0133 113.174 16.2427C113.302 16.472 113.467 16.648 113.67 16.7707C113.878 16.888 114.096 16.9467 114.326 16.9467C114.56 16.9467 114.779 16.888 114.982 16.7707C115.184 16.6533 115.347 16.4827 115.47 16.2587C115.598 16.0293 115.662 15.7627 115.662 15.4587ZM119.38 17.7387C119.033 17.7387 118.721 17.6773 118.444 17.5547C118.172 17.4267 117.956 17.256 117.796 17.0427C117.636 16.824 117.55 16.5813 117.54 16.3147H118.484C118.5 16.5013 118.588 16.6587 118.748 16.7867C118.913 16.9093 119.118 16.9707 119.364 16.9707C119.62 16.9707 119.817 16.9227 119.956 16.8267C120.1 16.7253 120.172 16.5973 120.172 16.4427C120.172 16.2773 120.092 16.1547 119.932 16.0747C119.777 15.9947 119.529 15.9067 119.188 15.8107C118.857 15.72 118.588 15.632 118.38 15.5467C118.172 15.4613 117.99 15.3307 117.836 15.1547C117.686 14.9787 117.612 14.7467 117.612 14.4587C117.612 14.224 117.681 14.0107 117.82 13.8187C117.958 13.6213 118.156 13.4667 118.412 13.3547C118.673 13.2427 118.972 13.1867 119.308 13.1867C119.809 13.1867 120.212 13.3147 120.516 13.5707C120.825 13.8213 120.99 14.1653 121.012 14.6027H120.1C120.084 14.4053 120.004 14.248 119.86 14.1307C119.716 14.0133 119.521 13.9547 119.276 13.9547C119.036 13.9547 118.852 14 118.724 14.0907C118.596 14.1813 118.532 14.3013 118.532 14.4507C118.532 14.568 118.574 14.6667 118.66 14.7467C118.745 14.8267 118.849 14.8907 118.972 14.9387C119.094 14.9813 119.276 15.0373 119.516 15.1067C119.836 15.192 120.097 15.28 120.3 15.3707C120.508 15.456 120.686 15.584 120.836 15.7547C120.985 15.9253 121.062 16.152 121.068 16.4347C121.068 16.6853 120.998 16.9093 120.86 17.1067C120.721 17.304 120.524 17.4587 120.268 17.5707C120.017 17.6827 119.721 17.7387 119.38 17.7387ZM126.093 15.3547C126.093 15.52 126.082 15.6693 126.061 15.8027H122.693C122.72 16.1547 122.85 16.4373 123.085 16.6507C123.32 16.864 123.608 16.9707 123.949 16.9707C124.44 16.9707 124.786 16.7653 124.989 16.3547H125.973C125.84 16.76 125.597 17.0933 125.245 17.3547C124.898 17.6107 124.466 17.7387 123.949 17.7387C123.528 17.7387 123.149 17.6453 122.813 17.4587C122.482 17.2667 122.221 17 122.029 16.6587C121.842 16.312 121.749 15.912 121.749 15.4587C121.749 15.0053 121.84 14.608 122.021 14.2667C122.208 13.92 122.466 13.6533 122.797 13.4667C123.133 13.28 123.517 13.1867 123.949 13.1867C124.365 13.1867 124.736 13.2773 125.061 13.4587C125.386 13.64 125.64 13.896 125.821 14.2267C126.002 14.552 126.093 14.928 126.093 15.3547ZM125.141 15.0667C125.136 14.7307 125.016 14.4613 124.781 14.2587C124.546 14.056 124.256 13.9547 123.909 13.9547C123.594 13.9547 123.325 14.056 123.101 14.2587C122.877 14.456 122.744 14.7253 122.701 15.0667H125.141ZM128.591 17.7387C128.244 17.7387 127.932 17.6773 127.655 17.5547C127.383 17.4267 127.167 17.256 127.007 17.0427C126.847 16.824 126.761 16.5813 126.751 16.3147H127.695C127.711 16.5013 127.799 16.6587 127.959 16.7867C128.124 16.9093 128.329 16.9707 128.575 16.9707C128.831 16.9707 129.028 16.9227 129.167 16.8267C129.311 16.7253 129.383 16.5973 129.383 16.4427C129.383 16.2773 129.303 16.1547 129.143 16.0747C128.988 15.9947 128.74 15.9067 128.399 15.8107C128.068 15.72 127.799 15.632 127.591 15.5467C127.383 15.4613 127.201 15.3307 127.047 15.1547C126.897 14.9787 126.823 14.7467 126.823 14.4587C126.823 14.224 126.892 14.0107 127.031 13.8187C127.169 13.6213 127.367 13.4667 127.623 13.3547C127.884 13.2427 128.183 13.1867 128.519 13.1867C129.02 13.1867 129.423 13.3147 129.727 13.5707C130.036 13.8213 130.201 14.1653 130.223 14.6027H129.311C129.295 14.4053 129.215 14.248 129.071 14.1307C128.927 14.0133 128.732 13.9547 128.487 13.9547C128.247 13.9547 128.063 14 127.935 14.0907C127.807 14.1813 127.743 14.3013 127.743 14.4507C127.743 14.568 127.785 14.6667 127.871 14.7467C127.956 14.8267 128.06 14.8907 128.183 14.9387C128.305 14.9813 128.487 15.0373 128.727 15.1067C129.047 15.192 129.308 15.28 129.511 15.3707C129.719 15.456 129.897 15.584 130.047 15.7547C130.196 15.9253 130.273 16.152 130.279 16.4347C130.279 16.6853 130.209 16.9093 130.071 17.1067C129.932 17.304 129.735 17.4587 129.479 17.5707C129.228 17.6827 128.932 17.7387 128.591 17.7387ZM135.19 14.0027H134.374V17.6667H133.454V14.0027H132.934V13.2587H133.454V12.9467C133.454 12.44 133.588 12.072 133.854 11.8427C134.126 11.608 134.55 11.4907 135.126 11.4907V12.2507C134.849 12.2507 134.654 12.304 134.542 12.4107C134.43 12.512 134.374 12.6907 134.374 12.9467V13.2587H135.19V14.0027ZM137.91 17.7387C137.494 17.7387 137.118 17.6453 136.782 17.4587C136.446 17.2667 136.182 17 135.99 16.6587C135.798 16.312 135.702 15.912 135.702 15.4587C135.702 15.0107 135.801 14.6133 135.998 14.2667C136.196 13.92 136.465 13.6533 136.806 13.4667C137.148 13.28 137.529 13.1867 137.95 13.1867C138.372 13.1867 138.753 13.28 139.094 13.4667C139.436 13.6533 139.705 13.92 139.902 14.2667C140.1 14.6133 140.198 15.0107 140.198 15.4587C140.198 15.9067 140.097 16.304 139.894 16.6507C139.692 16.9973 139.414 17.2667 139.062 17.4587C138.716 17.6453 138.332 17.7387 137.91 17.7387ZM137.91 16.9467C138.145 16.9467 138.364 16.8907 138.566 16.7787C138.774 16.6667 138.942 16.4987 139.07 16.2747C139.198 16.0507 139.262 15.7787 139.262 15.4587C139.262 15.1387 139.201 14.8693 139.078 14.6507C138.956 14.4267 138.793 14.2587 138.59 14.1467C138.388 14.0347 138.169 13.9787 137.934 13.9787C137.7 13.9787 137.481 14.0347 137.278 14.1467C137.081 14.2587 136.924 14.4267 136.806 14.6507C136.689 14.8693 136.63 15.1387 136.63 15.4587C136.63 15.9333 136.75 16.3013 136.99 16.5627C137.236 16.8187 137.542 16.9467 137.91 16.9467ZM142.012 13.8987C142.145 13.6747 142.321 13.5013 142.54 13.3787C142.764 13.2507 143.028 13.1867 143.332 13.1867V14.1307H143.1C142.743 14.1307 142.471 14.2213 142.284 14.4027C142.103 14.584 142.012 14.8987 142.012 15.3467V17.6667H141.1V13.2587H142.012V13.8987ZM149.506 13.1867C149.853 13.1867 150.162 13.2587 150.434 13.4027C150.712 13.5467 150.928 13.76 151.082 14.0427C151.242 14.3253 151.322 14.6667 151.322 15.0667V17.6667H150.418V15.2027C150.418 14.808 150.32 14.5067 150.122 14.2987C149.925 14.0853 149.656 13.9787 149.314 13.9787C148.973 13.9787 148.701 14.0853 148.498 14.2987C148.301 14.5067 148.202 14.808 148.202 15.2027V17.6667H147.298V15.2027C147.298 14.808 147.2 14.5067 147.002 14.2987C146.805 14.0853 146.536 13.9787 146.194 13.9787C145.853 13.9787 145.581 14.0853 145.378 14.2987C145.181 14.5067 145.082 14.808 145.082 15.2027V17.6667H144.17V13.2587H145.082V13.7627C145.232 13.5813 145.421 13.44 145.65 13.3387C145.88 13.2373 146.125 13.1867 146.386 13.1867C146.738 13.1867 147.053 13.2613 147.33 13.4107C147.608 13.56 147.821 13.776 147.97 14.0587C148.104 13.792 148.312 13.5813 148.594 13.4267C148.877 13.2667 149.181 13.1867 149.506 13.1867Z" fill="white"/>
<path d="M65.264 28.4267C64.9938 27.9289 64.6027 27.552 64.0907 27.296C63.5929 27.0258 63.0027 26.8907 62.32 26.8907C61.1396 26.8907 60.1938 27.2818 59.4827 28.064C58.7716 28.832 58.416 29.8631 58.416 31.1573C58.416 32.5369 58.7858 33.6178 59.5253 34.4C60.2791 35.168 61.3102 35.552 62.6187 35.552C63.5147 35.552 64.2684 35.3244 64.88 34.8693C65.5058 34.4142 65.9609 33.76 66.2453 32.9067H61.616V30.2187H69.552V33.6107C69.2818 34.5209 68.8196 35.3671 68.1653 36.1493C67.5253 36.9315 66.7076 37.5644 65.712 38.048C64.7164 38.5315 63.5929 38.7733 62.3413 38.7733C60.8622 38.7733 59.5396 38.4533 58.3733 37.8133C57.2213 37.1591 56.3182 36.256 55.664 35.104C55.024 33.952 54.704 32.6364 54.704 31.1573C54.704 29.6782 55.024 28.3627 55.664 27.2107C56.3182 26.0444 57.2213 25.1413 58.3733 24.5013C59.5253 23.8471 60.8409 23.52 62.32 23.52C64.112 23.52 65.6196 23.9538 66.8427 24.8213C68.08 25.6889 68.8978 26.8907 69.296 28.4267H65.264ZM73.4073 25.5253C72.7673 25.5253 72.2411 25.3404 71.8287 24.9707C71.4304 24.5867 71.2313 24.1173 71.2313 23.5627C71.2313 22.9938 71.4304 22.5244 71.8287 22.1547C72.2411 21.7707 72.7673 21.5787 73.4073 21.5787C74.0331 21.5787 74.5451 21.7707 74.9433 22.1547C75.3558 22.5244 75.562 22.9938 75.562 23.5627C75.562 24.1173 75.3558 24.5867 74.9433 24.9707C74.5451 25.3404 74.0331 25.5253 73.4073 25.5253ZM75.2207 26.7627V38.6667H71.5727V26.7627H75.2207ZM84.499 35.5733V38.6667H82.643C81.3203 38.6667 80.2892 38.3467 79.5497 37.7067C78.8101 37.0524 78.4403 35.9929 78.4403 34.528V29.792H76.9897V26.7627H78.4403V23.8613H82.0883V26.7627H84.4777V29.792H82.0883V34.5707C82.0883 34.9262 82.1737 35.1822 82.3443 35.3387C82.515 35.4951 82.7994 35.5733 83.1977 35.5733H84.499ZM99.5017 23.6907V38.6667H95.8537V32.5013H90.179V38.6667H86.531V23.6907H90.179V29.5573H95.8537V23.6907H99.5017ZM113.89 26.7627V38.6667H110.242V37.0453C109.872 37.5715 109.367 37.9982 108.727 38.3253C108.101 38.6382 107.404 38.7947 106.636 38.7947C105.726 38.7947 104.923 38.5955 104.226 38.1973C103.529 37.7849 102.988 37.1947 102.604 36.4267C102.22 35.6587 102.028 34.7555 102.028 33.7173V26.7627H105.655V33.2267C105.655 34.0231 105.861 34.6418 106.274 35.0827C106.686 35.5235 107.241 35.744 107.938 35.744C108.649 35.744 109.211 35.5235 109.623 35.0827C110.036 34.6418 110.242 34.0231 110.242 33.2267V26.7627H113.89ZM120.158 28.448C120.499 27.8933 120.99 27.4453 121.63 27.104C122.27 26.7627 123.003 26.592 123.827 26.592C124.809 26.592 125.698 26.8409 126.494 27.3387C127.291 27.8364 127.916 28.5475 128.371 29.472C128.841 30.3964 129.075 31.4702 129.075 32.6933C129.075 33.9164 128.841 34.9973 128.371 35.936C127.916 36.8604 127.291 37.5787 126.494 38.0907C125.698 38.5884 124.809 38.8373 123.827 38.8373C122.988 38.8373 122.256 38.6738 121.63 38.3467C121.004 38.0053 120.514 37.5573 120.158 37.0027V38.6667H116.51V22.88H120.158V28.448ZM125.363 32.6933C125.363 31.7831 125.107 31.072 124.595 30.56C124.098 30.0338 123.479 29.7707 122.739 29.7707C122.014 29.7707 121.395 30.0338 120.883 30.56C120.386 31.0862 120.137 31.8044 120.137 32.7147C120.137 33.6249 120.386 34.3431 120.883 34.8693C121.395 35.3955 122.014 35.6587 122.739 35.6587C123.465 35.6587 124.083 35.3955 124.595 34.8693C125.107 34.3289 125.363 33.6035 125.363 32.6933Z" fill="white"/>
<g clip-path="url(#clip0_1_25)">
<path fill-rule="evenodd" clip-rule="evenodd" d="M26.9513 10C17.9463 10 10.6667 17.3333 10.6667 26.4057C10.6667 33.6577 15.331 39.7963 21.8017 41.969C22.6107 42.1323 22.907 41.616 22.907 41.1817C22.907 40.8013 22.8803 39.4977 22.8803 38.1393C18.3503 39.1173 17.407 36.1837 17.407 36.1837C16.679 34.2823 15.6003 33.7937 15.6003 33.7937C14.1177 32.7887 15.7083 32.7887 15.7083 32.7887C17.353 32.8973 18.216 34.4727 18.216 34.4727C19.6717 36.9713 22.0173 36.2653 22.961 35.8307C23.0957 34.7713 23.5273 34.038 23.9857 33.6307C20.3727 33.2503 16.5713 31.838 16.5713 25.5363C16.5713 23.7437 17.218 22.277 18.2427 21.1363C18.081 20.729 17.5147 19.0447 18.4047 16.7903C18.4047 16.7903 19.7797 16.3557 22.88 18.4743C24.2074 18.1152 25.5762 17.9325 26.9513 17.931C28.3263 17.931 29.728 18.1213 31.0223 18.4743C34.123 16.3557 35.498 16.7903 35.498 16.7903C36.388 19.0447 35.8213 20.729 35.6597 21.1363C36.7113 22.277 37.3313 23.7437 37.3313 25.5363C37.3313 31.838 33.53 33.223 29.89 33.6307C30.4833 34.1467 30.9953 35.1243 30.9953 36.6727C30.9953 38.8727 30.9687 40.6383 30.9687 41.1813C30.9687 41.616 31.2653 42.1323 32.074 41.9693C38.5447 39.796 43.209 33.6577 43.209 26.4057C43.2357 17.3333 35.9293 10 26.9513 10Z" fill="white"/>
</g>
<defs>
<clipPath id="clip0_1_25">
<rect width="32.6667" height="32" fill="white" transform="translate(10.6667 10)"/>
</clipPath>
</defs>
</svg>
